# xmcd
#
# Track frame offsets: 
#        150
#        13335
#        23399
#        35954
#        49026
#        60258
#        75273
#        86766
#        99444
#        111724
#        122347
#        134825
#        145287
#        158807
#        171385
#        183326
#        197473
#        207861
#        220533
#        234200
#        246049
#        258982
#        268974
#        282001
#        293560
#
# Disc length: 4073 seconds
#
# Revision: 0
# Processed by: cddbd v1.5.2PL0 Copyright (c) Steve Scherf et al.
# Submitted via: ExactAudioCopy v0.95b4
#
DISCID=5f0fe719
DTITLE=Various Artist - 75 Rhythm and Blues, Disc 1
DYEAR=1900
DGENRE=R&B
TTITLE0=Ray Charles, I Got A Woman
TTITLE1=Dave Bartholomew, My Ding-A-Ling
TTITLE2=B.B. King, Everyday I Have The Blues
TTITLE3=Big Bill Broonzy, You've Been Mistreating Me
TTITLE4=Bo Diddley, Bo Diddley
TTITLE5=Elmore James, Whose Muddy Shoes
TTITLE6=Big Joe Turner, Wine-O-Baby Boogie
TTITLE7=Jimmy Preston, Oh Baby
TTITLE8=Kitty Stevenson, Good Man
TTITLE9=Roy Btrown, Lollypop Mama
TTITLE10=Lil Greenwood, How Come You Do Me Like You Do
TTITLE11=Louis Jordan, Don't Worry 'bout The Mule
TTITLE12=Memphis Minnie, Conjur Man
TTITLE13=Mr. Rain, Who Dat?
TTITLE14=Professor Longhair, Piano Blues
TTITLE15=Ray Charles, Someday
TTITLE16=Robert Johnson, Honeymoon Blues
TTITLE17=Ruth Brown, I'll Wait For You
TTITLE18=B.B. King, Three O'Clock Blues
TTITLE19=Ruth Brown, I'll Wait For You
TTITLE20=Ed Barron, Hey Miss Bertha
TTITLE21=Sarah Dean, I Got Your Boogie
TTITLE22=Sunnyland Slim, Johnson Machine Gun
TTITLE23=Tina Dixon, Blow Mr. Be Bop
TTITLE24=Willie Mabon, I'm Mad
EXTD=
EXTT0=
EXTT1=
EXTT2=
EXTT3=
EXTT4=
EXTT5=
EXTT6=
EXTT7=
EXTT8=
EXTT9=
EXTT10=
EXTT11=
EXTT12=
EXTT13=
EXTT14=
EXTT15=
EXTT16=
EXTT17=
EXTT18=
EXTT19=
EXTT20=
EXTT21=
EXTT22=
EXTT23=
EXTT24=
PLAYORDER=
